<svg xmlns="http://www.w3.org/2000/svg" xmlns:xlink="http://www.w3.org/1999/xlink" width="800" zoomAndPan="magnify" viewBox="0 0 600 269.999989" height="360" preserveAspectRatio="xMidYMid meet" version="1.0"><defs><g/><clipPath id="a94493198e"><rect x="0" width="181" y="0" height="270"/></clipPath><clipPath id="fc221d2764"><path d="M 0 114 L 66 114 L 66 250 L 0 250 Z M 0 114 " clip-rule="nonzero"/></clipPath><clipPath id="55816e5cf0"><path d="M -0.242188 249.847656 L -39.488281 210.601562 L 56.503906 114.613281 L 95.746094 153.855469 Z M -0.242188 249.847656 " clip-rule="nonzero"/></clipPath><clipPath id="7a40c1305a"><path d="M -0.242188 249.847656 L -39.488281 210.601562 L 56.503906 114.613281 L 95.746094 153.855469 Z M -0.242188 249.847656 " clip-rule="nonzero"/></clipPath><clipPath id="041929d442"><rect x="0" width="323" y="0" height="165"/></clipPath><clipPath id="8eae717680"><rect x="0" width="383" y="0" height="204"/></clipPath></defs><g transform="matrix(1, 0, 0, 1, 65, 0)"><g clip-path="url(#a94493198e)"><g fill="#ffffff" fill-opacity="1"><g transform="translate(0.909545, 231.550011)"><g><path d="M 89.265625 11.46875 L 2.796875 -190.28125 L 24.0625 -190.28125 L 89.265625 -36.9375 L 154.1875 -190.28125 L 175.453125 -190.28125 Z M 89.265625 11.46875 "/></g></g></g></g></g><g clip-path="url(#fc221d2764)"><g clip-path="url(#55816e5cf0)"><g clip-path="url(#7a40c1305a)"><path fill="#ffffff" d="M 56.617188 114.335938 L 65.882812 123.605469 L -0.222656 249.824219 Z M 56.617188 114.335938 " fill-opacity="1" fill-rule="nonzero"/></g></g></g><g transform="matrix(1, 0, 0, 1, 245, 6)"><g clip-path="url(#041929d442)"><g fill="#ffffff" fill-opacity="1"><g transform="translate(0.712978, 129.109394)"><g><path d="M 65.671875 0 L 10.28125 0 L 10.28125 -93.234375 L 65.671875 -93.234375 L 65.671875 -84.328125 L 19.875 -84.328125 L 19.875 -51.140625 L 64.296875 -51.140625 L 64.296875 -42.09375 L 19.875 -42.09375 L 19.875 -8.90625 L 65.671875 -8.90625 Z M 65.671875 0 "/></g></g></g><g fill="#ffffff" fill-opacity="1"><g transform="translate(76.659523, 129.109394)"><g><path d="M 77.734375 -30.84375 C 77.734375 -20.789062 74.445312 -12.84375 67.875 -7 C 61.65625 -1.507812 53.378906 1.234375 43.046875 1.234375 C 32.628906 1.234375 24.3125 -1.507812 18.09375 -7 C 11.507812 -12.84375 8.21875 -20.789062 8.21875 -30.84375 L 8.21875 -93.234375 L 17.828125 -93.234375 L 17.828125 -29.484375 C 17.828125 -22.441406 20.382812 -17.046875 25.5 -13.296875 C 29.882812 -10.003906 35.734375 -8.359375 43.046875 -8.359375 C 54.472656 -8.359375 62.15625 -12.195312 66.09375 -19.875 C 67.457031 -22.53125 68.140625 -25.734375 68.140625 -29.484375 L 68.140625 -93.234375 L 77.734375 -93.234375 Z M 77.734375 -30.84375 "/></g></g></g><g fill="#ffffff" fill-opacity="1"><g transform="translate(162.61346, 129.109394)"><g><path d="M 19.875 -46.0625 L 41.546875 -46.0625 C 46.941406 -46.0625 51.375 -47.890625 54.84375 -51.546875 C 58.40625 -55.296875 60.1875 -59.914062 60.1875 -65.40625 C 60.1875 -70.789062 58.5 -75.269531 55.125 -78.84375 C 51.738281 -82.3125 47.210938 -84.046875 41.546875 -84.046875 L 19.875 -84.046875 Z M 69.78125 -65.125 C 69.78125 -56.988281 66.90625 -50.222656 61.15625 -44.828125 C 56.03125 -40.078125 49.859375 -37.472656 42.640625 -37.015625 L 71.296875 0 L 58.40625 0 L 31.125 -36.875 L 19.875 -36.875 L 19.875 0 L 10.28125 0 L 10.28125 -93.234375 L 40.171875 -93.234375 C 48.492188 -93.234375 55.488281 -90.628906 61.15625 -85.421875 C 66.90625 -79.929688 69.78125 -73.164062 69.78125 -65.125 Z M 69.78125 -65.125 "/></g></g></g><g fill="#ffffff" fill-opacity="1"><g transform="translate(237.189132, 129.109394)"><g><path d="M 25.359375 -34.28125 L 59.234375 -34.28125 L 42.359375 -77.1875 Z M 83.21875 0 L 72.8125 0 L 62.796875 -25.359375 L 21.796875 -25.359375 L 11.796875 0 L 1.375 0 L 42.359375 -99.671875 Z M 83.21875 0 "/></g></g></g></g></g><g transform="matrix(1, 0, 0, 1, 217, 66)"><g clip-path="url(#8eae717680)"><g fill="#ffffff" fill-opacity="1"><g transform="translate(0.768793, 182.613726)"><g><path d="M 96.734375 -44.0625 L 96.734375 -36.96875 L 22.609375 -36.96875 C 23.878906 -29.6875 27.390625 -23.75 33.140625 -19.15625 C 39.015625 -14.425781 45.523438 -12.0625 52.671875 -12.0625 C 57.523438 -12.0625 62.1875 -13.210938 66.65625 -15.515625 C 71 -17.679688 74.640625 -20.742188 77.578125 -24.703125 L 92.90625 -24.703125 C 89.320312 -16.660156 83.957031 -10.34375 76.8125 -5.75 C 69.53125 -1.019531 62.1875 1.34375 54.78125 1.34375 C 47.25 1.34375 40.863281 0.191406 35.625 -2.109375 C 30.257812 -4.410156 25.597656 -7.539062 21.640625 -11.5 C 12.960938 -19.925781 8.625 -30.265625 8.625 -42.515625 C 8.625 -54.648438 12.960938 -65.0625 21.640625 -73.75 C 30.203125 -82.300781 40.546875 -86.578125 52.671875 -86.578125 C 64.421875 -86.578125 74.703125 -82.425781 83.515625 -74.125 C 92.328125 -65.695312 96.734375 -55.675781 96.734375 -44.0625 Z M 82.5625 -48.46875 C 81.03125 -55.613281 77.453125 -61.550781 71.828125 -66.28125 C 66.210938 -70.875 59.828125 -73.171875 52.671875 -73.171875 C 41.691406 -73.171875 33.070312 -68.253906 26.8125 -58.421875 C 24.894531 -55.359375 23.554688 -52.039062 22.796875 -48.46875 Z M 82.5625 -48.46875 "/></g></g></g><g fill="#ffffff" fill-opacity="1"><g transform="translate(115.695885, 182.613726)"><g><path d="M 57.65625 -66.84375 C 54.59375 -69.65625 51.269531 -71.0625 47.6875 -71.0625 C 44.238281 -71.0625 41.304688 -70.101562 38.890625 -68.1875 C 36.328125 -66.144531 34.21875 -63.71875 32.5625 -60.90625 C 29.375 -55.289062 27.78125 -49.035156 27.78125 -42.140625 L 27.78125 0 L 14.359375 0 L 14.359375 -84.28125 L 27.78125 -84.28125 L 27.78125 -66.84375 L 28.34375 -70.296875 C 32.8125 -80.765625 39.773438 -86 49.234375 -86 C 52.171875 -86 54.976562 -85.425781 57.65625 -84.28125 Z M 57.65625 -66.84375 "/></g></g></g><g fill="#ffffff" fill-opacity="1"><g transform="translate(185.801545, 182.613726)"><g><path d="M 26.625 -12.0625 C 29.945312 -9.769531 34.289062 -8.625 39.65625 -8.625 C 51.90625 -8.625 58.03125 -13.21875 58.03125 -22.40625 C 58.03125 -27.769531 53.628906 -31.859375 44.828125 -34.671875 C 41.117188 -35.941406 37.160156 -37.09375 32.953125 -38.125 C 28.609375 -39.144531 24.582031 -40.484375 20.875 -42.140625 C 16.53125 -44.179688 13.273438 -46.734375 11.109375 -49.796875 C 8.941406 -52.867188 7.859375 -56.507812 7.859375 -60.71875 C 7.859375 -69.144531 10.796875 -75.46875 16.671875 -79.6875 C 22.535156 -84.03125 29.554688 -86.203125 37.734375 -86.203125 C 45.910156 -86.203125 52.675781 -84.539062 58.03125 -81.21875 C 63.394531 -77.894531 67.035156 -71.957031 68.953125 -63.40625 L 54.59375 -63.40625 C 53.0625 -68.125 50.828125 -71.25 47.890625 -72.78125 C 45.078125 -74.320312 41.566406 -75.09375 37.359375 -75.09375 C 33.140625 -75.09375 29.5625 -74.195312 26.625 -72.40625 C 23.5625 -70.488281 22.03125 -67.679688 22.03125 -63.984375 C 22.03125 -60.148438 23.304688 -57.335938 25.859375 -55.546875 C 28.285156 -53.890625 31.347656 -52.421875 35.046875 -51.140625 C 38.753906 -49.992188 42.78125 -48.972656 47.125 -48.078125 C 51.332031 -47.054688 55.351562 -45.648438 59.1875 -43.859375 C 67.875 -39.773438 72.21875 -33.203125 72.21875 -24.140625 C 72.21875 -15.066406 68.957031 -8.359375 62.4375 -4.015625 C 59.125 -1.847656 55.488281 -0.191406 51.53125 0.953125 C 47.695312 1.972656 43.484375 2.484375 38.890625 2.484375 C 19.347656 2.484375 8.109375 -6.195312 5.171875 -23.5625 L 19.34375 -23.5625 C 20.75 -18.070312 23.175781 -14.238281 26.625 -12.0625 Z M 26.625 -12.0625 "/></g></g></g><g fill="#ffffff" fill-opacity="1"><g transform="translate(273.337755, 182.613726)"><g><path d="M 96.734375 -44.0625 L 96.734375 -36.96875 L 22.609375 -36.96875 C 23.878906 -29.6875 27.390625 -23.75 33.140625 -19.15625 C 39.015625 -14.425781 45.523438 -12.0625 52.671875 -12.0625 C 57.523438 -12.0625 62.1875 -13.210938 66.65625 -15.515625 C 71 -17.679688 74.640625 -20.742188 77.578125 -24.703125 L 92.90625 -24.703125 C 89.320312 -16.660156 83.957031 -10.34375 76.8125 -5.75 C 69.53125 -1.019531 62.1875 1.34375 54.78125 1.34375 C 47.25 1.34375 40.863281 0.191406 35.625 -2.109375 C 30.257812 -4.410156 25.597656 -7.539062 21.640625 -11.5 C 12.960938 -19.925781 8.625 -30.265625 8.625 -42.515625 C 8.625 -54.648438 12.960938 -65.0625 21.640625 -73.75 C 30.203125 -82.300781 40.546875 -86.578125 52.671875 -86.578125 C 64.421875 -86.578125 74.703125 -82.425781 83.515625 -74.125 C 92.328125 -65.695312 96.734375 -55.675781 96.734375 -44.0625 Z M 82.5625 -48.46875 C 81.03125 -55.613281 77.453125 -61.550781 71.828125 -66.28125 C 66.210938 -70.875 59.828125 -73.171875 52.671875 -73.171875 C 41.691406 -73.171875 33.070312 -68.253906 26.8125 -58.421875 C 24.894531 -55.359375 23.554688 -52.039062 22.796875 -48.46875 Z M 82.5625 -48.46875 "/></g></g></g></g></g></svg>